<mxfile host="app.diagrams.net" modified="2021-04-27T13:20:13.612Z" agent="5.0 (Windows NT 10.0; Win64; x64) AppleWebKit/537.36 (KHTML, like Gecko) Chrome/90.0.4430.93 Safari/537.36" etag="RfmCZFbtQIx_SshT72iV" version="14.6.6" type="github">
  <diagram id="BSTLE7_yzejE6WdxNYc8" name="Page-1">
    <mxGraphModel dx="648" dy="370" grid="1" gridSize="10" guides="1" tooltips="1" connect="1" arrows="1" fold="1" page="1" pageScale="1" pageWidth="850" pageHeight="1100" math="0" shadow="0">
      <root>
        <mxCell id="0" />
        <mxCell id="1" parent="0" />
        <mxCell id="sjCQOgqBna5IyIyZHuyT-13" value="" style="rounded=0;whiteSpace=wrap;html=1;" parent="1" vertex="1">
          <mxGeometry x="498.5" y="152" width="172.5" height="110" as="geometry" />
        </mxCell>
        <mxCell id="sjCQOgqBna5IyIyZHuyT-12" value="" style="rounded=0;whiteSpace=wrap;html=1;" parent="1" vertex="1">
          <mxGeometry x="317" y="152" width="120" height="110" as="geometry" />
        </mxCell>
        <mxCell id="Sye2rz8z6Uivf4PvG4rr-3" value="" style="rounded=0;whiteSpace=wrap;html=1;" parent="1" vertex="1">
          <mxGeometry x="109.5" y="152" width="172.5" height="110" as="geometry" />
        </mxCell>
        <mxCell id="UTH4l14dTVkqmEDSazQt-14" value="" style="group" parent="1" vertex="1" connectable="0">
          <mxGeometry x="110" y="160" width="55" height="40" as="geometry" />
        </mxCell>
        <mxCell id="Sye2rz8z6Uivf4PvG4rr-4" value="&lt;div style=&quot;text-align: justify&quot;&gt;&lt;br&gt;&lt;/div&gt;" style="rounded=0;whiteSpace=wrap;html=1;align=center;strokeColor=none;fillColor=#B1DDF0;" parent="UTH4l14dTVkqmEDSazQt-14" vertex="1">
          <mxGeometry x="2.5" y="10" width="50" height="30" as="geometry" />
        </mxCell>
        <mxCell id="UTH4l14dTVkqmEDSazQt-13" value="&lt;font style=&quot;font-size: 10px&quot;&gt;&lt;b&gt;Service-A&lt;/b&gt;&lt;/font&gt;" style="text;html=1;strokeColor=none;fillColor=none;align=center;verticalAlign=middle;whiteSpace=wrap;rounded=0;" parent="UTH4l14dTVkqmEDSazQt-14" vertex="1">
          <mxGeometry width="55" height="10" as="geometry" />
        </mxCell>
        <mxCell id="UTH4l14dTVkqmEDSazQt-4" value="" style="group" parent="1" vertex="1" connectable="0">
          <mxGeometry x="122.5" y="186" width="40" height="14" as="geometry" />
        </mxCell>
        <mxCell id="UTH4l14dTVkqmEDSazQt-1" value="" style="rounded=0;whiteSpace=wrap;html=1;fontColor=#ffffff;strokeColor=none;fillColor=#008A00;" parent="UTH4l14dTVkqmEDSazQt-4" vertex="1">
          <mxGeometry width="40" height="14" as="geometry" />
        </mxCell>
        <mxCell id="UTH4l14dTVkqmEDSazQt-3" value="&lt;font style=&quot;font-size: 8px&quot;&gt;falken&lt;/font&gt;" style="rounded=0;whiteSpace=wrap;html=1;fontColor=#ffffff;strokeColor=none;fillColor=none;" parent="UTH4l14dTVkqmEDSazQt-4" vertex="1">
          <mxGeometry x="10" y="4" width="30" height="10" as="geometry" />
        </mxCell>
        <mxCell id="UTH4l14dTVkqmEDSazQt-15" value="" style="group" parent="1" vertex="1" connectable="0">
          <mxGeometry x="170" y="160" width="55" height="40" as="geometry" />
        </mxCell>
        <mxCell id="UTH4l14dTVkqmEDSazQt-16" value="&lt;div style=&quot;text-align: justify&quot;&gt;&lt;br&gt;&lt;/div&gt;" style="rounded=0;whiteSpace=wrap;html=1;fillColor=#d0cee2;align=center;strokeColor=none;" parent="UTH4l14dTVkqmEDSazQt-15" vertex="1">
          <mxGeometry x="2.5" y="10" width="50" height="30" as="geometry" />
        </mxCell>
        <mxCell id="UTH4l14dTVkqmEDSazQt-17" value="&lt;font style=&quot;font-size: 10px&quot;&gt;&lt;b&gt;Service-B&lt;/b&gt;&lt;/font&gt;" style="text;html=1;strokeColor=none;fillColor=none;align=center;verticalAlign=middle;whiteSpace=wrap;rounded=0;" parent="UTH4l14dTVkqmEDSazQt-15" vertex="1">
          <mxGeometry width="55" height="10" as="geometry" />
        </mxCell>
        <mxCell id="UTH4l14dTVkqmEDSazQt-18" value="" style="group" parent="1" vertex="1" connectable="0">
          <mxGeometry x="182.5" y="186" width="40" height="14" as="geometry" />
        </mxCell>
        <mxCell id="UTH4l14dTVkqmEDSazQt-19" value="" style="rounded=0;whiteSpace=wrap;html=1;fillColor=#6d8764;fontColor=#ffffff;strokeColor=none;" parent="UTH4l14dTVkqmEDSazQt-18" vertex="1">
          <mxGeometry width="40" height="14" as="geometry" />
        </mxCell>
        <mxCell id="UTH4l14dTVkqmEDSazQt-20" value="&lt;font style=&quot;font-size: 8px&quot;&gt;falken&lt;/font&gt;" style="rounded=0;whiteSpace=wrap;html=1;fillColor=#008a00;fontColor=#ffffff;strokeColor=none;" parent="UTH4l14dTVkqmEDSazQt-18" vertex="1">
          <mxGeometry x="10" y="4" width="30" height="10" as="geometry" />
        </mxCell>
        <mxCell id="UTH4l14dTVkqmEDSazQt-21" value="" style="group;fillColor=#008A00;" parent="UTH4l14dTVkqmEDSazQt-18" vertex="1" connectable="0">
          <mxGeometry width="40" height="14" as="geometry" />
        </mxCell>
        <mxCell id="UTH4l14dTVkqmEDSazQt-22" value="" style="rounded=0;whiteSpace=wrap;html=1;fontColor=#ffffff;strokeColor=none;fillColor=#008A00;" parent="UTH4l14dTVkqmEDSazQt-21" vertex="1">
          <mxGeometry width="40" height="14" as="geometry" />
        </mxCell>
        <mxCell id="UTH4l14dTVkqmEDSazQt-23" value="&lt;font style=&quot;font-size: 8px&quot;&gt;falken&lt;/font&gt;" style="rounded=0;whiteSpace=wrap;html=1;fontColor=#ffffff;strokeColor=none;fillColor=none;" parent="UTH4l14dTVkqmEDSazQt-21" vertex="1">
          <mxGeometry x="10" y="4" width="30" height="10" as="geometry" />
        </mxCell>
        <mxCell id="UTH4l14dTVkqmEDSazQt-27" value="" style="group" parent="1" vertex="1" connectable="0">
          <mxGeometry x="225" y="160" width="55" height="40" as="geometry" />
        </mxCell>
        <mxCell id="UTH4l14dTVkqmEDSazQt-28" value="&lt;div style=&quot;text-align: justify&quot;&gt;&lt;br&gt;&lt;/div&gt;" style="rounded=0;whiteSpace=wrap;html=1;fillColor=#f0a30a;fontColor=#ffffff;strokeColor=none;align=center;" parent="UTH4l14dTVkqmEDSazQt-27" vertex="1">
          <mxGeometry x="2.5" y="10" width="50" height="30" as="geometry" />
        </mxCell>
        <mxCell id="UTH4l14dTVkqmEDSazQt-29" value="&lt;font style=&quot;font-size: 10px&quot;&gt;&lt;b&gt;Service-C&lt;/b&gt;&lt;/font&gt;" style="text;html=1;strokeColor=none;fillColor=none;align=center;verticalAlign=middle;whiteSpace=wrap;rounded=0;" parent="UTH4l14dTVkqmEDSazQt-27" vertex="1">
          <mxGeometry width="55" height="10" as="geometry" />
        </mxCell>
        <mxCell id="UTH4l14dTVkqmEDSazQt-30" value="" style="group" parent="1" vertex="1" connectable="0">
          <mxGeometry x="237.5" y="186" width="40" height="14" as="geometry" />
        </mxCell>
        <mxCell id="UTH4l14dTVkqmEDSazQt-31" value="" style="rounded=0;whiteSpace=wrap;html=1;fillColor=#6d8764;fontColor=#ffffff;strokeColor=none;" parent="UTH4l14dTVkqmEDSazQt-30" vertex="1">
          <mxGeometry width="40" height="14" as="geometry" />
        </mxCell>
        <mxCell id="UTH4l14dTVkqmEDSazQt-32" value="&lt;font style=&quot;font-size: 8px&quot;&gt;falken&lt;/font&gt;" style="rounded=0;whiteSpace=wrap;html=1;fillColor=#008a00;fontColor=#ffffff;strokeColor=none;" parent="UTH4l14dTVkqmEDSazQt-30" vertex="1">
          <mxGeometry x="10" y="4" width="30" height="10" as="geometry" />
        </mxCell>
        <mxCell id="UTH4l14dTVkqmEDSazQt-33" value="" style="group" parent="UTH4l14dTVkqmEDSazQt-30" vertex="1" connectable="0">
          <mxGeometry width="40" height="14" as="geometry" />
        </mxCell>
        <mxCell id="UTH4l14dTVkqmEDSazQt-34" value="" style="rounded=0;whiteSpace=wrap;html=1;fontColor=#ffffff;strokeColor=none;fillColor=#008A00;" parent="UTH4l14dTVkqmEDSazQt-33" vertex="1">
          <mxGeometry width="40" height="14" as="geometry" />
        </mxCell>
        <mxCell id="UTH4l14dTVkqmEDSazQt-35" value="&lt;font style=&quot;font-size: 8px&quot;&gt;falken&lt;/font&gt;" style="rounded=0;whiteSpace=wrap;html=1;fontColor=#ffffff;strokeColor=none;fillColor=none;" parent="UTH4l14dTVkqmEDSazQt-33" vertex="1">
          <mxGeometry x="10" y="4" width="30" height="10" as="geometry" />
        </mxCell>
        <mxCell id="UTH4l14dTVkqmEDSazQt-42" value="Host" style="text;html=1;strokeColor=none;fillColor=none;align=center;verticalAlign=middle;whiteSpace=wrap;rounded=0;" parent="1" vertex="1">
          <mxGeometry x="110" y="130" width="40" height="20" as="geometry" />
        </mxCell>
        <mxCell id="UTH4l14dTVkqmEDSazQt-36" value="&lt;font style=&quot;font-size: 8px&quot;&gt;Throttle agent&lt;/font&gt;" style="rounded=0;whiteSpace=wrap;html=1;fillColor=#60a917;fontColor=#ffffff;strokeColor=#FF0000;glass=0;shadow=0;sketch=0;" parent="1" vertex="1">
          <mxGeometry x="170" y="226" width="60" height="30" as="geometry" />
        </mxCell>
        <mxCell id="UTH4l14dTVkqmEDSazQt-38" value="&lt;font style=&quot;font-size: 8px&quot;&gt;falken&lt;/font&gt;" style="rounded=0;whiteSpace=wrap;html=1;fillColor=#008a00;fontColor=#ffffff;strokeColor=none;" parent="1" vertex="1">
          <mxGeometry x="200" y="246" width="30" height="10" as="geometry" />
        </mxCell>
        <mxCell id="UTH4l14dTVkqmEDSazQt-45" value="" style="group" parent="1" vertex="1" connectable="0">
          <mxGeometry x="320" y="160" width="55" height="40" as="geometry" />
        </mxCell>
        <mxCell id="UTH4l14dTVkqmEDSazQt-46" value="&lt;div style=&quot;text-align: justify&quot;&gt;&lt;br&gt;&lt;/div&gt;" style="rounded=0;whiteSpace=wrap;html=1;fillColor=#b1ddf0;align=center;strokeColor=none;" parent="UTH4l14dTVkqmEDSazQt-45" vertex="1">
          <mxGeometry x="2.5" y="10" width="50" height="30" as="geometry" />
        </mxCell>
        <mxCell id="UTH4l14dTVkqmEDSazQt-47" value="&lt;font style=&quot;font-size: 10px&quot;&gt;&lt;b&gt;Service-A&lt;/b&gt;&lt;/font&gt;" style="text;html=1;strokeColor=none;fillColor=none;align=center;verticalAlign=middle;whiteSpace=wrap;rounded=0;" parent="UTH4l14dTVkqmEDSazQt-45" vertex="1">
          <mxGeometry width="55" height="10" as="geometry" />
        </mxCell>
        <mxCell id="UTH4l14dTVkqmEDSazQt-48" value="" style="group" parent="1" vertex="1" connectable="0">
          <mxGeometry x="332.5" y="186" width="40" height="14" as="geometry" />
        </mxCell>
        <mxCell id="UTH4l14dTVkqmEDSazQt-49" value="" style="rounded=0;whiteSpace=wrap;html=1;fillColor=#6d8764;fontColor=#ffffff;strokeColor=none;" parent="UTH4l14dTVkqmEDSazQt-48" vertex="1">
          <mxGeometry width="40" height="14" as="geometry" />
        </mxCell>
        <mxCell id="UTH4l14dTVkqmEDSazQt-50" value="&lt;font style=&quot;font-size: 8px&quot;&gt;falken&lt;/font&gt;" style="rounded=0;whiteSpace=wrap;html=1;fillColor=#008a00;fontColor=#ffffff;strokeColor=none;" parent="UTH4l14dTVkqmEDSazQt-48" vertex="1">
          <mxGeometry x="10" y="4" width="30" height="10" as="geometry" />
        </mxCell>
        <mxCell id="UTH4l14dTVkqmEDSazQt-51" value="" style="group" parent="UTH4l14dTVkqmEDSazQt-48" vertex="1" connectable="0">
          <mxGeometry width="40" height="14" as="geometry" />
        </mxCell>
        <mxCell id="UTH4l14dTVkqmEDSazQt-52" value="" style="rounded=0;whiteSpace=wrap;html=1;fontColor=#ffffff;strokeColor=none;fillColor=#008A00;" parent="UTH4l14dTVkqmEDSazQt-51" vertex="1">
          <mxGeometry width="40" height="14" as="geometry" />
        </mxCell>
        <mxCell id="UTH4l14dTVkqmEDSazQt-53" value="&lt;font style=&quot;font-size: 8px&quot;&gt;falken&lt;/font&gt;" style="rounded=0;whiteSpace=wrap;html=1;fontColor=#ffffff;strokeColor=none;fillColor=none;" parent="UTH4l14dTVkqmEDSazQt-51" vertex="1">
          <mxGeometry x="10" y="4" width="30" height="10" as="geometry" />
        </mxCell>
        <mxCell id="UTH4l14dTVkqmEDSazQt-63" value="" style="group" parent="1" vertex="1" connectable="0">
          <mxGeometry x="380" y="160" width="55" height="40" as="geometry" />
        </mxCell>
        <mxCell id="UTH4l14dTVkqmEDSazQt-64" value="&lt;div style=&quot;text-align: justify&quot;&gt;&lt;br&gt;&lt;/div&gt;" style="rounded=0;whiteSpace=wrap;html=1;fontColor=#ffffff;strokeColor=none;align=center;fillColor=#F0A30A;" parent="UTH4l14dTVkqmEDSazQt-63" vertex="1">
          <mxGeometry x="2.5" y="10" width="50" height="30" as="geometry" />
        </mxCell>
        <mxCell id="UTH4l14dTVkqmEDSazQt-65" value="&lt;font style=&quot;font-size: 10px&quot;&gt;&lt;b&gt;Service-C&lt;/b&gt;&lt;/font&gt;" style="text;html=1;strokeColor=none;fillColor=none;align=center;verticalAlign=middle;whiteSpace=wrap;rounded=0;" parent="UTH4l14dTVkqmEDSazQt-63" vertex="1">
          <mxGeometry width="55" height="10" as="geometry" />
        </mxCell>
        <mxCell id="UTH4l14dTVkqmEDSazQt-66" value="" style="group" parent="1" vertex="1" connectable="0">
          <mxGeometry x="392.5" y="186" width="40" height="14" as="geometry" />
        </mxCell>
        <mxCell id="UTH4l14dTVkqmEDSazQt-67" value="" style="rounded=0;whiteSpace=wrap;html=1;fillColor=#6d8764;fontColor=#ffffff;strokeColor=none;" parent="UTH4l14dTVkqmEDSazQt-66" vertex="1">
          <mxGeometry width="40" height="14" as="geometry" />
        </mxCell>
        <mxCell id="UTH4l14dTVkqmEDSazQt-68" value="&lt;font style=&quot;font-size: 8px&quot;&gt;falken&lt;/font&gt;" style="rounded=0;whiteSpace=wrap;html=1;fillColor=#008a00;fontColor=#ffffff;strokeColor=none;" parent="UTH4l14dTVkqmEDSazQt-66" vertex="1">
          <mxGeometry x="10" y="4" width="30" height="10" as="geometry" />
        </mxCell>
        <mxCell id="UTH4l14dTVkqmEDSazQt-69" value="" style="group" parent="UTH4l14dTVkqmEDSazQt-66" vertex="1" connectable="0">
          <mxGeometry width="40" height="14" as="geometry" />
        </mxCell>
        <mxCell id="UTH4l14dTVkqmEDSazQt-70" value="" style="rounded=0;whiteSpace=wrap;html=1;fontColor=#ffffff;strokeColor=none;fillColor=#008A00;" parent="UTH4l14dTVkqmEDSazQt-69" vertex="1">
          <mxGeometry width="40" height="14" as="geometry" />
        </mxCell>
        <mxCell id="UTH4l14dTVkqmEDSazQt-71" value="&lt;font style=&quot;font-size: 8px&quot;&gt;falken&lt;/font&gt;" style="rounded=0;whiteSpace=wrap;html=1;fontColor=#ffffff;strokeColor=none;fillColor=none;" parent="UTH4l14dTVkqmEDSazQt-69" vertex="1">
          <mxGeometry x="10" y="4" width="30" height="10" as="geometry" />
        </mxCell>
        <mxCell id="UTH4l14dTVkqmEDSazQt-72" value="Host" style="text;html=1;strokeColor=none;fillColor=none;align=center;verticalAlign=middle;whiteSpace=wrap;rounded=0;" parent="1" vertex="1">
          <mxGeometry x="318" y="130" width="40" height="20" as="geometry" />
        </mxCell>
        <mxCell id="UTH4l14dTVkqmEDSazQt-73" value="&lt;font style=&quot;font-size: 8px&quot;&gt;Throttle agent&lt;/font&gt;" style="rounded=0;whiteSpace=wrap;html=1;fillColor=#60a917;fontColor=#ffffff;strokeColor=none;" parent="1" vertex="1">
          <mxGeometry x="350" y="226" width="60" height="30" as="geometry" />
        </mxCell>
        <mxCell id="UTH4l14dTVkqmEDSazQt-74" value="&lt;font style=&quot;font-size: 8px&quot;&gt;falken&lt;/font&gt;" style="rounded=0;whiteSpace=wrap;html=1;fillColor=#008a00;fontColor=#ffffff;strokeColor=none;" parent="1" vertex="1">
          <mxGeometry x="380" y="246" width="30" height="10" as="geometry" />
        </mxCell>
        <mxCell id="UTH4l14dTVkqmEDSazQt-112" value="" style="group" parent="1" vertex="1" connectable="0">
          <mxGeometry x="500" y="160" width="55" height="40" as="geometry" />
        </mxCell>
        <mxCell id="UTH4l14dTVkqmEDSazQt-113" value="&lt;div style=&quot;text-align: justify&quot;&gt;&lt;br&gt;&lt;/div&gt;" style="rounded=0;whiteSpace=wrap;html=1;fillColor=#b0e3e6;align=center;strokeColor=none;" parent="UTH4l14dTVkqmEDSazQt-112" vertex="1">
          <mxGeometry x="2.5" y="10" width="50" height="30" as="geometry" />
        </mxCell>
        <mxCell id="UTH4l14dTVkqmEDSazQt-114" value="&lt;font style=&quot;font-size: 10px&quot;&gt;&lt;b&gt;Service-A&lt;/b&gt;&lt;/font&gt;" style="text;html=1;strokeColor=none;fillColor=none;align=center;verticalAlign=middle;whiteSpace=wrap;rounded=0;" parent="UTH4l14dTVkqmEDSazQt-112" vertex="1">
          <mxGeometry width="55" height="10" as="geometry" />
        </mxCell>
        <mxCell id="UTH4l14dTVkqmEDSazQt-115" value="" style="group;fillColor=#008A00;" parent="1" vertex="1" connectable="0">
          <mxGeometry x="512.5" y="186" width="40" height="14" as="geometry" />
        </mxCell>
        <mxCell id="UTH4l14dTVkqmEDSazQt-116" value="" style="rounded=0;whiteSpace=wrap;html=1;fillColor=#6d8764;fontColor=#ffffff;strokeColor=none;" parent="UTH4l14dTVkqmEDSazQt-115" vertex="1">
          <mxGeometry width="40" height="14" as="geometry" />
        </mxCell>
        <mxCell id="UTH4l14dTVkqmEDSazQt-117" value="&lt;font style=&quot;font-size: 8px&quot;&gt;falken&lt;/font&gt;" style="rounded=0;whiteSpace=wrap;html=1;fillColor=#008a00;fontColor=#ffffff;strokeColor=none;" parent="UTH4l14dTVkqmEDSazQt-115" vertex="1">
          <mxGeometry x="10" y="4" width="30" height="10" as="geometry" />
        </mxCell>
        <mxCell id="UTH4l14dTVkqmEDSazQt-118" value="" style="group" parent="UTH4l14dTVkqmEDSazQt-115" vertex="1" connectable="0">
          <mxGeometry width="40" height="14" as="geometry" />
        </mxCell>
        <mxCell id="UTH4l14dTVkqmEDSazQt-119" value="" style="rounded=0;whiteSpace=wrap;html=1;fontColor=#ffffff;strokeColor=none;fillColor=#008A00;" parent="UTH4l14dTVkqmEDSazQt-118" vertex="1">
          <mxGeometry width="40" height="14" as="geometry" />
        </mxCell>
        <mxCell id="UTH4l14dTVkqmEDSazQt-120" value="&lt;font style=&quot;font-size: 8px&quot;&gt;falken&lt;/font&gt;" style="rounded=0;whiteSpace=wrap;html=1;fontColor=#ffffff;strokeColor=none;fillColor=none;" parent="UTH4l14dTVkqmEDSazQt-118" vertex="1">
          <mxGeometry x="10" y="4" width="30" height="10" as="geometry" />
        </mxCell>
        <mxCell id="UTH4l14dTVkqmEDSazQt-121" value="" style="group" parent="1" vertex="1" connectable="0">
          <mxGeometry x="560" y="160" width="55" height="40" as="geometry" />
        </mxCell>
        <mxCell id="UTH4l14dTVkqmEDSazQt-122" value="&lt;div style=&quot;text-align: justify&quot;&gt;&lt;br&gt;&lt;/div&gt;" style="rounded=0;whiteSpace=wrap;html=1;fillColor=#d0cee2;align=center;strokeColor=none;" parent="UTH4l14dTVkqmEDSazQt-121" vertex="1">
          <mxGeometry x="2.5" y="10" width="50" height="30" as="geometry" />
        </mxCell>
        <mxCell id="UTH4l14dTVkqmEDSazQt-123" value="&lt;font style=&quot;font-size: 10px&quot;&gt;&lt;b&gt;Service-B&lt;/b&gt;&lt;/font&gt;" style="text;html=1;strokeColor=none;fillColor=none;align=center;verticalAlign=middle;whiteSpace=wrap;rounded=0;" parent="UTH4l14dTVkqmEDSazQt-121" vertex="1">
          <mxGeometry width="55" height="10" as="geometry" />
        </mxCell>
        <mxCell id="UTH4l14dTVkqmEDSazQt-124" value="" style="group" parent="1" vertex="1" connectable="0">
          <mxGeometry x="572.5" y="186" width="40" height="14" as="geometry" />
        </mxCell>
        <mxCell id="UTH4l14dTVkqmEDSazQt-125" value="" style="rounded=0;whiteSpace=wrap;html=1;fillColor=#6d8764;fontColor=#ffffff;strokeColor=none;" parent="UTH4l14dTVkqmEDSazQt-124" vertex="1">
          <mxGeometry width="40" height="14" as="geometry" />
        </mxCell>
        <mxCell id="UTH4l14dTVkqmEDSazQt-126" value="&lt;font style=&quot;font-size: 8px&quot;&gt;falken&lt;/font&gt;" style="rounded=0;whiteSpace=wrap;html=1;fillColor=#008a00;fontColor=#ffffff;strokeColor=none;" parent="UTH4l14dTVkqmEDSazQt-124" vertex="1">
          <mxGeometry x="10" y="4" width="30" height="10" as="geometry" />
        </mxCell>
        <mxCell id="UTH4l14dTVkqmEDSazQt-127" value="" style="group" parent="UTH4l14dTVkqmEDSazQt-124" vertex="1" connectable="0">
          <mxGeometry width="40" height="14" as="geometry" />
        </mxCell>
        <mxCell id="UTH4l14dTVkqmEDSazQt-128" value="" style="rounded=0;whiteSpace=wrap;html=1;fontColor=#ffffff;strokeColor=none;fillColor=#008A00;" parent="UTH4l14dTVkqmEDSazQt-127" vertex="1">
          <mxGeometry width="40" height="14" as="geometry" />
        </mxCell>
        <mxCell id="UTH4l14dTVkqmEDSazQt-129" value="&lt;font style=&quot;font-size: 8px&quot;&gt;falken&lt;/font&gt;" style="rounded=0;whiteSpace=wrap;html=1;fontColor=#ffffff;strokeColor=none;fillColor=none;" parent="UTH4l14dTVkqmEDSazQt-127" vertex="1">
          <mxGeometry x="10" y="4" width="30" height="10" as="geometry" />
        </mxCell>
        <mxCell id="UTH4l14dTVkqmEDSazQt-130" value="" style="group" parent="1" vertex="1" connectable="0">
          <mxGeometry x="615" y="160" width="55" height="40" as="geometry" />
        </mxCell>
        <mxCell id="UTH4l14dTVkqmEDSazQt-131" value="&lt;div style=&quot;text-align: justify&quot;&gt;&lt;br&gt;&lt;/div&gt;" style="rounded=0;whiteSpace=wrap;html=1;fillColor=#f0a30a;fontColor=#ffffff;strokeColor=none;align=center;" parent="UTH4l14dTVkqmEDSazQt-130" vertex="1">
          <mxGeometry x="2.5" y="10" width="50" height="30" as="geometry" />
        </mxCell>
        <mxCell id="UTH4l14dTVkqmEDSazQt-132" value="&lt;font style=&quot;font-size: 10px&quot;&gt;&lt;b&gt;Service-C&lt;/b&gt;&lt;/font&gt;" style="text;html=1;strokeColor=none;fillColor=none;align=center;verticalAlign=middle;whiteSpace=wrap;rounded=0;" parent="UTH4l14dTVkqmEDSazQt-130" vertex="1">
          <mxGeometry width="55" height="10" as="geometry" />
        </mxCell>
        <mxCell id="UTH4l14dTVkqmEDSazQt-133" value="" style="group" parent="1" vertex="1" connectable="0">
          <mxGeometry x="627.5" y="186" width="40" height="14" as="geometry" />
        </mxCell>
        <mxCell id="UTH4l14dTVkqmEDSazQt-134" value="" style="rounded=0;whiteSpace=wrap;html=1;fillColor=#6d8764;fontColor=#ffffff;strokeColor=none;" parent="UTH4l14dTVkqmEDSazQt-133" vertex="1">
          <mxGeometry width="40" height="14" as="geometry" />
        </mxCell>
        <mxCell id="UTH4l14dTVkqmEDSazQt-135" value="&lt;font style=&quot;font-size: 8px&quot;&gt;falken&lt;/font&gt;" style="rounded=0;whiteSpace=wrap;html=1;fillColor=#008a00;fontColor=#ffffff;strokeColor=none;" parent="UTH4l14dTVkqmEDSazQt-133" vertex="1">
          <mxGeometry x="10" y="4" width="30" height="10" as="geometry" />
        </mxCell>
        <mxCell id="UTH4l14dTVkqmEDSazQt-136" value="" style="group" parent="UTH4l14dTVkqmEDSazQt-133" vertex="1" connectable="0">
          <mxGeometry width="40" height="14" as="geometry" />
        </mxCell>
        <mxCell id="UTH4l14dTVkqmEDSazQt-137" value="" style="rounded=0;whiteSpace=wrap;html=1;fontColor=#ffffff;strokeColor=none;fillColor=#008A00;" parent="UTH4l14dTVkqmEDSazQt-136" vertex="1">
          <mxGeometry width="40" height="14" as="geometry" />
        </mxCell>
        <mxCell id="UTH4l14dTVkqmEDSazQt-138" value="&lt;font style=&quot;font-size: 8px&quot;&gt;falken&lt;/font&gt;" style="rounded=0;whiteSpace=wrap;html=1;fontColor=#ffffff;strokeColor=none;fillColor=none;" parent="UTH4l14dTVkqmEDSazQt-136" vertex="1">
          <mxGeometry x="10" y="4" width="30" height="10" as="geometry" />
        </mxCell>
        <mxCell id="UTH4l14dTVkqmEDSazQt-139" value="Host" style="text;html=1;strokeColor=none;fillColor=none;align=center;verticalAlign=middle;whiteSpace=wrap;rounded=0;" parent="1" vertex="1">
          <mxGeometry x="500" y="130" width="40" height="20" as="geometry" />
        </mxCell>
        <mxCell id="UTH4l14dTVkqmEDSazQt-142" value="" style="endArrow=none;dashed=1;html=1;dashPattern=1 3;strokeWidth=2;strokeColor=#BD7000;fillColor=#f0a30a;" parent="1" edge="1">
          <mxGeometry width="50" height="50" relative="1" as="geometry">
            <mxPoint x="485.5" y="199.17000000000002" as="sourcePoint" />
            <mxPoint x="450" y="199.17000000000002" as="targetPoint" />
          </mxGeometry>
        </mxCell>
        <mxCell id="sjCQOgqBna5IyIyZHuyT-1" value="&lt;font style=&quot;font-size: 8px&quot;&gt;Throttle agent&lt;/font&gt;" style="rounded=0;whiteSpace=wrap;html=1;fillColor=#60a917;fontColor=#ffffff;strokeColor=none;" parent="1" vertex="1">
          <mxGeometry x="562.5" y="226" width="60" height="30" as="geometry" />
        </mxCell>
        <mxCell id="sjCQOgqBna5IyIyZHuyT-2" value="&lt;font style=&quot;font-size: 8px&quot;&gt;falken&lt;/font&gt;" style="rounded=0;whiteSpace=wrap;html=1;fillColor=#008a00;fontColor=#ffffff;strokeColor=none;" parent="1" vertex="1">
          <mxGeometry x="592.5" y="246" width="30" height="10" as="geometry" />
        </mxCell>
        <mxCell id="sjCQOgqBna5IyIyZHuyT-3" value="" style="endArrow=classic;startArrow=classic;html=1;strokeColor=#2D7600;fillColor=#60a917;exitX=0.5;exitY=1;exitDx=0;exitDy=0;entryX=0.5;entryY=0;entryDx=0;entryDy=0;" parent="1" target="UTH4l14dTVkqmEDSazQt-36" edge="1">
          <mxGeometry width="50" height="50" relative="1" as="geometry">
            <mxPoint x="147.5" y="200" as="sourcePoint" />
            <mxPoint x="300" y="240" as="targetPoint" />
          </mxGeometry>
        </mxCell>
        <mxCell id="sjCQOgqBna5IyIyZHuyT-4" value="" style="endArrow=classic;startArrow=classic;html=1;strokeColor=#2D7600;fillColor=#60a917;exitX=0.25;exitY=1;exitDx=0;exitDy=0;entryX=0.5;entryY=0;entryDx=0;entryDy=0;" parent="1" source="UTH4l14dTVkqmEDSazQt-23" target="UTH4l14dTVkqmEDSazQt-36" edge="1">
          <mxGeometry width="50" height="50" relative="1" as="geometry">
            <mxPoint x="157.5" y="210" as="sourcePoint" />
            <mxPoint x="205" y="236" as="targetPoint" />
          </mxGeometry>
        </mxCell>
        <mxCell id="sjCQOgqBna5IyIyZHuyT-5" value="" style="endArrow=classic;startArrow=classic;html=1;strokeColor=#2D7600;fillColor=#60a917;exitX=0.5;exitY=1;exitDx=0;exitDy=0;entryX=0.5;entryY=0;entryDx=0;entryDy=0;" parent="1" source="UTH4l14dTVkqmEDSazQt-35" target="UTH4l14dTVkqmEDSazQt-36" edge="1">
          <mxGeometry width="50" height="50" relative="1" as="geometry">
            <mxPoint x="210" y="210" as="sourcePoint" />
            <mxPoint x="210" y="236" as="targetPoint" />
          </mxGeometry>
        </mxCell>
        <mxCell id="sjCQOgqBna5IyIyZHuyT-6" value="" style="endArrow=classic;startArrow=classic;html=1;strokeColor=#2D7600;fillColor=#60a917;exitX=0.25;exitY=1;exitDx=0;exitDy=0;entryX=0.5;entryY=0;entryDx=0;entryDy=0;" parent="1" source="UTH4l14dTVkqmEDSazQt-53" target="UTH4l14dTVkqmEDSazQt-73" edge="1">
          <mxGeometry width="50" height="50" relative="1" as="geometry">
            <mxPoint x="272.5" y="210" as="sourcePoint" />
            <mxPoint x="210" y="236" as="targetPoint" />
          </mxGeometry>
        </mxCell>
        <mxCell id="sjCQOgqBna5IyIyZHuyT-7" value="" style="endArrow=classic;startArrow=classic;html=1;strokeColor=#2D7600;fillColor=#60a917;exitX=0.25;exitY=1;exitDx=0;exitDy=0;entryX=0.5;entryY=0;entryDx=0;entryDy=0;" parent="1" source="UTH4l14dTVkqmEDSazQt-71" target="UTH4l14dTVkqmEDSazQt-73" edge="1">
          <mxGeometry width="50" height="50" relative="1" as="geometry">
            <mxPoint x="360" y="210" as="sourcePoint" />
            <mxPoint x="390" y="236" as="targetPoint" />
          </mxGeometry>
        </mxCell>
        <mxCell id="sjCQOgqBna5IyIyZHuyT-8" value="" style="endArrow=classic;startArrow=classic;html=1;strokeColor=#2D7600;fillColor=#60a917;exitX=0.428;exitY=0.989;exitDx=0;exitDy=0;entryX=0.5;entryY=0;entryDx=0;entryDy=0;exitPerimeter=0;" parent="1" source="UTH4l14dTVkqmEDSazQt-113" target="sjCQOgqBna5IyIyZHuyT-1" edge="1">
          <mxGeometry width="50" height="50" relative="1" as="geometry">
            <mxPoint x="420" y="210" as="sourcePoint" />
            <mxPoint x="390" y="236" as="targetPoint" />
          </mxGeometry>
        </mxCell>
        <mxCell id="sjCQOgqBna5IyIyZHuyT-9" value="" style="endArrow=classic;startArrow=classic;html=1;strokeColor=#2D7600;fillColor=#60a917;exitX=0.5;exitY=1;exitDx=0;exitDy=0;entryX=0.5;entryY=0;entryDx=0;entryDy=0;" parent="1" source="UTH4l14dTVkqmEDSazQt-128" target="sjCQOgqBna5IyIyZHuyT-1" edge="1">
          <mxGeometry width="50" height="50" relative="1" as="geometry">
            <mxPoint x="533.9000000000001" y="209.66999999999996" as="sourcePoint" />
            <mxPoint x="602.5" y="236" as="targetPoint" />
          </mxGeometry>
        </mxCell>
        <mxCell id="sjCQOgqBna5IyIyZHuyT-10" value="" style="endArrow=classic;startArrow=classic;html=1;strokeColor=#2D7600;fillColor=#60a917;exitX=0.25;exitY=1;exitDx=0;exitDy=0;entryX=0.5;entryY=0;entryDx=0;entryDy=0;" parent="1" source="UTH4l14dTVkqmEDSazQt-138" target="sjCQOgqBna5IyIyZHuyT-1" edge="1">
          <mxGeometry width="50" height="50" relative="1" as="geometry">
            <mxPoint x="602.5" y="210" as="sourcePoint" />
            <mxPoint x="602.5" y="236" as="targetPoint" />
          </mxGeometry>
        </mxCell>
        <mxCell id="U8WB3mT4J4PXdAK8IR8l-2" value="" style="ellipse;shape=cloud;whiteSpace=wrap;html=1;" vertex="1" parent="1">
          <mxGeometry x="270" y="340" width="195" height="80" as="geometry" />
        </mxCell>
        <mxCell id="U8WB3mT4J4PXdAK8IR8l-3" value="" style="endArrow=classic;startArrow=classic;html=1;exitX=0.25;exitY=0.25;exitDx=0;exitDy=0;exitPerimeter=0;entryX=0.476;entryY=0.987;entryDx=0;entryDy=0;entryPerimeter=0;" edge="1" parent="1" source="U8WB3mT4J4PXdAK8IR8l-2" target="Sye2rz8z6Uivf4PvG4rr-3">
          <mxGeometry width="50" height="50" relative="1" as="geometry">
            <mxPoint x="370" y="280" as="sourcePoint" />
            <mxPoint x="420" y="230" as="targetPoint" />
          </mxGeometry>
        </mxCell>
        <mxCell id="U8WB3mT4J4PXdAK8IR8l-4" value="" style="endArrow=classic;startArrow=classic;html=1;exitX=0.4;exitY=0.1;exitDx=0;exitDy=0;exitPerimeter=0;entryX=0.5;entryY=1;entryDx=0;entryDy=0;" edge="1" parent="1" source="U8WB3mT4J4PXdAK8IR8l-2" target="sjCQOgqBna5IyIyZHuyT-12">
          <mxGeometry width="50" height="50" relative="1" as="geometry">
            <mxPoint x="328.75" y="370.0000000000001" as="sourcePoint" />
            <mxPoint x="201.61000000000013" y="270.56999999999994" as="targetPoint" />
          </mxGeometry>
        </mxCell>
        <mxCell id="U8WB3mT4J4PXdAK8IR8l-5" value="" style="endArrow=classic;startArrow=classic;html=1;exitX=0.88;exitY=0.25;exitDx=0;exitDy=0;exitPerimeter=0;entryX=0.5;entryY=1;entryDx=0;entryDy=0;" edge="1" parent="1" source="U8WB3mT4J4PXdAK8IR8l-2" target="sjCQOgqBna5IyIyZHuyT-13">
          <mxGeometry width="50" height="50" relative="1" as="geometry">
            <mxPoint x="338.75" y="380.0000000000001" as="sourcePoint" />
            <mxPoint x="211.61000000000013" y="280.56999999999994" as="targetPoint" />
          </mxGeometry>
        </mxCell>
        <mxCell id="U8WB3mT4J4PXdAK8IR8l-7" value="&lt;font style=&quot;font-size: 8px&quot;&gt;ctrl&lt;/font&gt;" style="rounded=0;whiteSpace=wrap;html=1;fillColor=#e3c800;fontColor=#000000;strokeColor=#FF0000;glass=0;shadow=0;sketch=0;" vertex="1" parent="1">
          <mxGeometry x="230" y="246" width="30" height="10" as="geometry" />
        </mxCell>
        <mxCell id="U8WB3mT4J4PXdAK8IR8l-11" value="" style="shape=stencil(lVzZjhw3EvyaeSV4M/PZ6/0PA5ZXg9VKhizvrv/eSQxY3RVZHewG9DCaiehi8ciMPNhv5ac/Pv/y+6e3HP/48f3bvz/97/3XH5/fyj/ecn7/+vnT9/cf9tNb+fmt/PTbt++f/vX9259ff/34/++/TOT86T/f/js/4f8fvBiMMf/Fvz5+0VooH7/55wf+y/tXiq+hDIavesbnoInhRznjY5DO8FJP+Kr081OI8YyXkAvDp3HG99AqwxcYT6XjT6G2M76sJz7ANxh/WjPwCN/P+Bh6fAFfNAyyHzxegtD59Pj4En5s1gvxtl4vjb8FeRGf6H7r6YyvodL57+f9VkroyvBwXkoOwvGC+Ejxcj6/JYVM8BnPV4lrxz7Ap7M9ybbfKD6fx58lKMUXRXyi+HZerzxCoXhYr9xDF4YHe2X4SOyDWcuzfcgtVHLey/q0A1/pfi7rNN3h2foWtG/2m0HGX9C+3Z74AA/ny2aA7Qc7HRnxkdjPgudlnmg6n7he5kHIeS9uvcwDkv1Qcb2SUn9RQxLEZzL+iuuVZM3YAzzsf8NHMv8V5zONUOn49WwfUqf7p6F9MHxsDF/O85/amoEH+HY+v6lSf2feoSGe2ZO+duOBL3Q/dDf+vJ74AN8L4hPF4/wn6h+H228xKLEPY33aHZ7thxHkPB6lckZwOnXp0QdwmE2hzlRwMs1XkLHLUpoLPsIgpkFDUoBnYqk01POrdiqszG1WgBeyz2xZogCe6rAYytlQteX5HuFHAzzVbSa0QTgHYeNPOD2mq/jnCwjhNQHXeBMOINy4Ds5rZ93wLC4yMwDzX6hfMXwDx7Um+BEe3jdTu2NmLIPjoidrmskI+MjikIbrm3hc1PB9E49b+nr8DV/Z+I8w7oZnftTcWjyvr9lBNp+HLbjhhY1f1na54ZmfNrefIuCZLpyyIgOeWR/7c2uAT0zXpvVxNzyLK6bwx/EznTGFcH0FXzBw2eArBkYbfFvm4El8x0Bhgx8v4gWF8AavKPQ4vhxu/El8Qte7wecVdjyJL+u4PomvK4x7Em9h1kvzY+vrxsPiqBEU15edr6LePrDzW+OS1Td8If6iHrLxOXtSC9rPuAz2Nb55+8DEUh1L5j9nb6vgeef2vEU8X2kdiGt8doFUGGT+W3WJjZDI/LSGwjyvyOQaP1Dvcf3QnPrk+qRH1MJc//QUNAOexQm9eL2XiR7oFfVYXZm1a3zzeKYne1+Pv+lVFmd2pwe4vjW8DMBXNn5ZcueGb2w+dcn9G57FjSOu0Oam/xNZ35HwPHaaJzK8KuAbiwOdf+fhziiIH9R+jurxLO8zGiZyBs2rjoGJHKH2ZwgWFnhoOhQTdUrtiUSPryz0TehPNSj7/MOc3QX6zKCI2aeMBJa5NQKmWhJ1SVJDEyQoG1JDTWBRHEtWS0cjamFWYbM6XNRTV0L0miAYFs5AiNgJ0RW23yXIGjkIGh1hrBzeI4LCkIROq6a1c+5yoJklRjJqlU1SVguKoZmHZ08oaI1m4pi9Q0V5s8mja8N4ZpPYNwIY+E2lQbt7gqwY7REBQrh5ptmQnOaaKp7tpYHV3U31yQgCWQ9eDlNB2VgatRpGwILboAVtdcKxyJJW1wRdBb9DWURacjBCPr90TTS3YgQoWtVMna0RsCpcqJoyAsxSrTRtPAkDCcoJEB9bBLCZVgjAa6em0ghyNjMWM7B07SQoEuh5UNQMFmWwYkWK0bUXKJU9F4zGA7UrRqJrd81gi3fFyLzN4IJh/puZZDe5rdJKn1++xiWx31GNa1C/yS3KYkm4ee4gyc1VnBEqvLTSNO40BedN3iP31ooNOhaZbaYVzFnPtIJtBFhpi+U6ewdnYXvl7l3Qdlg0x5L7KrgOFs5t3ApYWIvPqKcTFy4Jt7DDxTPK9cBY+YQ7AsuQGwFe2mK6zgkQIo7ELezAl7YoLXPFgUFW5ha2rxEfhMLVa8cDNHi/ghEyFOkaTeSZLsN3aNwINPcOnYZ+RsB16Hylm1uHjVSsqMCNQM1Mxc1n8Wlm6+D08RCaHzJCOZ9pi2hZo5tWlLuDdwaZxgdtaTFw4lEEKHAjUIfiwg6LmlnSxAjwDpK4B8pYpZHMd2vGdTACPdN2giMSqGRPmLiSwrd3ckPiLWxGwCFVmtuwiFQSElhywwg1I4FmNxRjXmn0PBgBypVGYH7ax+3SaUFaxD2h05hXXIVBBvVA9mecpbFLh0CNWQ6v94gARWYRnj9p2E5iBCUnztYV0uI20TThUpaDuiOwQoMRoCNm7i6eKYNK0syosHVImHq3E8LUjJktyJQpbwo2QoQh8QBzZh8VCZ2nN6GPz2whM2TmoKD+YQSW7TMCJFCNMNg7dGxFVB7zjobhwPR67B0qRqTKg2QjgPbWRh27qSMIB5RH1SNjoH9LIz3K24MXVR6GGwHEiRFY4DeO43IQeNxuOhhaKXTQnrWptCsSBiv+CIoT0/ub6k9vSKDln44OxQjsTBsBtMYMctg7NEyiKk9WGAHc7gzU2Eu7lh8jMHNvBHyCriLANaG4J+j6iEcEyK+r0jjOYluoEShP0Pi65swSsFlKWCOYeQi2NSJWIVRpqrnpBYHdeWnimzh5N0MbvrqzYXTXqLtj+NbeHcPV1LcM196+ZWT0EluGu1LxBCO/+B6+W2HPwMbyDaO63NSWIejvnmCkF0flSgxbRsdYdstwIf8TDAjstoyKhYzNoa3F+SRuFmp2HoMbnpqcI+amrUYMQfRoUr4kFF3x9JP2vAh2UW18UhnYBrzxq6U748mLAPN+lyKB6f1SsdC9EUSzZhaRwDRaSdiLZyqQNfeW6GKWym8pCV57uWVXrgkD2w+n3mf9nx2LYrfMxDWhYdp5ExXNDlDYrfzq4+yohoBZaWpktjAXJNDLZRENjYWzbOFmEyEQBm07m7eBXNBPi0Ouz2iTVkgDc4ubxIURoLNqRvVsSK412whMNqbmUlQ8H5Sc9JXCC2IV7ZIU3o5esT1s5g1YIbCgqZRMGyTnBYKCBNYBlTKayploYC/tpK8R6B2RhLZV+OVPf0lk8A4FI0CXkhHY9S53K2aXpsY3GPy6qL8CNGjbpmA+a3S68ZxyN3xhbXFuPLx4MfD626Y6MjAPtCm/DPSFm/rOcXn2wPMC0lHmu8OzClV383kk265lNGYHB7/+2fA65Ig0wdmwC38mO1jbL85/59c/XYzVhbdd4/sanrnxulJuB353/RP220yMMI2K67sp7Lrrsf3wDQ/wkAidWRGmN937Vrp/ilvfurk+jOvLGwyLG3+m+ydjrGp4fv0cx59od4q7nj/7yMn+zBilNt52mlCXzmQI//oF6OjgDRru6zWa0N4u93UfbdBsqfs6kcbbnJObn05bKeOLPTIROy1apfY2Yjq58bb9iNmUVuh5cbmwxu1/xAT6vKdB7MNVJxQ7L/uvx7Efbt+t89v7ly8fX81z/3f8Lh771cf3+JSf/wY=);fillColor=none;shadow=0;glass=0;dashed=1;sketch=0;strokeColor=#FF0000;strokeWidth=2;" vertex="1" parent="1">
          <mxGeometry x="159.85714285714278" y="214.28571428571422" width="106.9047619047619" height="67.14285714285714" as="geometry" />
        </mxCell>
      </root>
    </mxGraphModel>
  </diagram>
</mxfile>
